<?xml version="1.0" encoding="utf-8"?><svg width="50" height="48" viewBox="0 0 50 48" xmlns="http://www.w3.org/2000/svg" xmlns:xlink="http://www.w3.org/1999/xlink"><svg width="24" height="24" viewBox="0 0 24 24" id="facebook-round" y="24" xmlns="http://www.w3.org/2000/svg"><g fill="none"><ellipse cx="11.894" cy="11.915" fill="#3B5998" rx="11.894" ry="11.915"/><path fill="#FFF" d="M14.884 12.381h-2.122v7.789H9.546v-7.79h-1.53V9.644h1.53V7.872c0-1.266.6-3.25 3.244-3.25l2.382.01V7.29h-1.728c-.283 0-.682.142-.682.746v1.611h2.403l-.28 2.735z"/></g></svg><svg width="24" height="24" viewBox="0 0 24 24" id="instagram" x="24" y="24" xmlns="http://www.w3.org/2000/svg"><defs><linearGradient id="ba" x1="40.102%" x2="26.562%" y1="8.446%" y2="89.62%"><stop offset="0%" stop-color="#603DED"/><stop offset="56.133%" stop-color="#ED2F5D"/><stop offset="100%" stop-color="#EAB933"/></linearGradient></defs><g fill="none" fill-rule="evenodd" transform="translate(.042)"><ellipse cx="11.894" cy="11.915" fill="url(#ba)" fill-rule="nonzero" rx="11.894" ry="11.915"/><path fill="#FFF" d="M8.602 6.077a2.541 2.541 0 0 0-2.535 2.54v6.414a2.54 2.54 0 0 0 2.535 2.54h6.403a2.541 2.541 0 0 0 2.536-2.54V8.617c0-1.4-1.138-2.54-2.536-2.54H8.602zm6.403 12.771H8.602a3.819 3.819 0 0 1-3.81-3.817V8.617A3.819 3.819 0 0 1 8.602 4.8h6.403a3.819 3.819 0 0 1 3.81 3.817v6.414a3.819 3.819 0 0 1-3.81 3.817z"/><path fill="#FFF" d="M11.81 9.277a2.555 2.555 0 0 0 0 5.109 2.555 2.555 0 0 0 0-5.109zm0 6.386a3.832 3.832 0 0 1 0-7.663 3.832 3.832 0 0 1 0 7.663zm3.202-7.186a.64.64 0 0 1 0-1.277.64.64 0 0 1 0 1.277z"/></g></svg><svg width="25" height="24" viewBox="0 0 25 24" id="twitter-round" xmlns="http://www.w3.org/2000/svg"><g fill="none" transform="translate(.347)"><ellipse cx="11.894" cy="11.915" fill="#55ACEE" rx="11.894" ry="11.915"/><path fill="#FFF" d="M19.18 8.563c-.51.226-1.058.38-1.633.448a2.855 2.855 0 0 0 1.25-1.576 5.685 5.685 0 0 1-1.805.691 2.846 2.846 0 0 0-4.845 2.598 8.066 8.066 0 0 1-5.86-2.976 2.85 2.85 0 0 0 .88 3.802 2.82 2.82 0 0 1-1.288-.356v.036c0 1.38.98 2.53 2.28 2.792a2.828 2.828 0 0 1-1.283.05 2.847 2.847 0 0 0 2.655 1.977 5.698 5.698 0 0 1-4.209 1.18 8.032 8.032 0 0 0 4.358 1.28c5.23 0 8.089-4.34 8.089-8.104a8.16 8.16 0 0 0-.008-.368 5.77 5.77 0 0 0 1.419-1.474z"/></g></svg><svg width="25" height="24" viewBox="0 0 25 24" id="youtube" x="25" xmlns="http://www.w3.org/2000/svg"><g fill="none"><path fill="#C4302B" d="M12.646 0c6.6 0 11.95 5.36 11.95 11.972 0 6.612-5.35 11.972-11.95 11.972-6.601 0-11.952-5.36-11.952-11.972C.694 5.361 6.044 0 12.646 0z"/><path fill="#FFF" d="M12.357 9.728c.378 0 .674-.12.89-.292.216-.172.323-.406.323-.707V6.914a.798.798 0 0 0-.328-.658c-.22-.17-.502-.254-.847-.254-.378 0-.68.08-.903.24a.76.76 0 0 0-.336.65v1.822c0 .3.11.536.327.713.218.178.51.301.874.301zm-.395-2.747c0-.069.036-.124.107-.168a.538.538 0 0 1 .278-.064c.124 0 .224.021.3.064.076.044.113.1.113.168v1.726a.228.228 0 0 1-.112.2.551.551 0 0 1-.301.074.479.479 0 0 1-.285-.072.234.234 0 0 1-.1-.202V6.98zm2.896 2.745c.133 0 .268-.077.409-.153a1.53 1.53 0 0 0 .407-.34v.404h.706v-3.64h-.706V8.76a1.002 1.002 0 0 1-.217.195.4.4 0 0 1-.198.077c-.066 0-.115-.019-.143-.058-.03-.038-.046-.1-.046-.186v-2.79h-.705v3.04c0 .218.043.38.124.488.083.108.206.2.37.2zm2.053 1.505H8.38c-1.357 0-2.456 1.058-2.456 2.363v1.997c0 1.305 1.1 2.364 2.456 2.364h8.53c1.355 0 2.455-1.059 2.455-2.364v-1.997c0-1.305-1.1-2.363-2.455-2.363zM9.65 13.258h-.755v3.13h-.73v-3.13h-.754v-.533H9.65v.533zm2.251 3.173h-.787v-.325c-.146.12-.296.212-.454.273a1.191 1.191 0 0 1-.457.095c-.182 0-.318-.044-.41-.133-.092-.087-.139-.22-.139-.395v-2.47h.787v2.266c0 .07.016.12.048.15.034.033.088.047.162.047.056 0 .131-.02.22-.062a1.02 1.02 0 0 0 .244-.158v-2.244h.786v2.956zm2.977-.563c0 .194-.061.341-.183.445-.12.104-.298.155-.527.155-.153 0-.29-.02-.407-.059a1.023 1.023 0 0 1-.333-.185v.21h-.785v-3.71h.785v1.196c.107-.083.218-.147.334-.19a1.02 1.02 0 0 1 .358-.065c.246 0 .433.057.563.173.13.117.195.288.195.512v1.518zm2.993-.834h-1.45v.534c0 .149.024.252.074.31.051.058.137.087.257.087.127 0 .214-.025.265-.074.05-.049.076-.156.076-.324v-.128h.78v.145c0 .29-.094.509-.287.656-.19.147-.474.22-.85.22-.34 0-.608-.078-.803-.233a.78.78 0 0 1-.293-.642V14.31c0-.245.108-.447.323-.602.214-.154.49-.23.83-.23.346 0 .612.071.799.214.186.143.279.35.279.617v.724zM9.227 9.736h.891V7.561l1.038-3.068h-.907L9.7 6.59h-.06l-.578-2.097h-.898L9.227 7.66v2.077zm4.526 4.363l-.165.026-.16.084v1.704a.684.684 0 0 0 .184.097l.188.029c.095 0 .165-.019.21-.059.044-.038.067-.1.067-.187V14.38c0-.094-.026-.163-.082-.21a.368.368 0 0 0-.242-.071z"/><path fill="#FFF" d="M16.794 13.974c-.12 0-.207.026-.26.078-.052.05-.077.136-.077.255v.285h.67v-.285c0-.12-.028-.204-.08-.255-.052-.052-.138-.078-.253-.078z"/></g></svg></svg>