<svg xmlns="http://www.w3.org/2000/svg" width="25" height="24" viewBox="0 0 25 24">
    <g fill="none" fill-rule="nonzero" transform="translate(.347)">
        <ellipse cx="11.894" cy="11.915" fill="#55ACEE" rx="11.894" ry="11.915"/>
        <path fill="#FFF" d="M19.18 8.563c-.51.226-1.058.38-1.633.448a2.855 2.855 0 0 0 1.25-1.576 5.685 5.685 0 0 1-1.805.691 2.846 2.846 0 0 0-4.845 2.598 8.066 8.066 0 0 1-5.86-2.976 2.85 2.85 0 0 0 .88 3.802 2.82 2.82 0 0 1-1.288-.356v.036c0 1.38.98 2.53 2.28 2.792a2.828 2.828 0 0 1-1.283.05 2.847 2.847 0 0 0 2.655 1.977 5.698 5.698 0 0 1-4.209 1.18 8.032 8.032 0 0 0 4.358 1.28c5.23 0 8.089-4.34 8.089-8.104a8.16 8.16 0 0 0-.008-.368 5.77 5.77 0 0 0 1.419-1.474z"/>
    </g>
</svg>
