<svg xmlns="http://www.w3.org/2000/svg" width="25" height="24" viewBox="0 0 25 24">
    <g fill="none" fill-rule="nonzero">
        <path fill="#C4302B" d="M12.646 0c6.6 0 11.95 5.36 11.95 11.972 0 6.612-5.35 11.972-11.95 11.972-6.601 0-11.952-5.36-11.952-11.972C.694 5.361 6.044 0 12.646 0z"/>
        <path fill="#FFF" d="M12.357 9.728c.378 0 .674-.12.89-.292.216-.172.323-.406.323-.707V6.914a.798.798 0 0 0-.328-.658c-.22-.17-.502-.254-.847-.254-.378 0-.68.08-.903.24a.76.76 0 0 0-.336.65v1.822c0 .3.11.536.327.713.218.178.51.301.874.301zm-.395-2.747c0-.069.036-.124.107-.168a.538.538 0 0 1 .278-.064c.124 0 .224.021.3.064.076.044.113.1.113.168v1.726a.228.228 0 0 1-.112.2.551.551 0 0 1-.301.074.479.479 0 0 1-.285-.072.234.234 0 0 1-.1-.202V6.98zm2.896 2.745c.133 0 .268-.077.409-.153a1.53 1.53 0 0 0 .407-.34v.404h.706v-3.64h-.706V8.76a1.002 1.002 0 0 1-.217.195.4.4 0 0 1-.198.077c-.066 0-.115-.019-.143-.058-.03-.038-.046-.1-.046-.186v-2.79h-.705v3.04c0 .218.043.38.124.488.083.108.206.2.37.2zm2.053 1.505H8.38c-1.357 0-2.456 1.058-2.456 2.363v1.997c0 1.305 1.1 2.364 2.456 2.364h8.53c1.355 0 2.455-1.059 2.455-2.364v-1.997c0-1.305-1.1-2.363-2.455-2.363zM9.65 13.258h-.755v3.13h-.73v-3.13h-.754v-.533H9.65v.533zm2.251 3.173h-.787v-.325c-.146.12-.296.212-.454.273a1.191 1.191 0 0 1-.457.095c-.182 0-.318-.044-.41-.133-.092-.087-.139-.22-.139-.395v-2.47h.787v2.266c0 .07.016.12.048.15.034.033.088.047.162.047.056 0 .131-.02.22-.062.088-.041.17-.093.244-.158v-2.244h.786v2.956zm2.977-.563c0 .194-.061.341-.183.445-.12.104-.298.155-.527.155-.153 0-.29-.02-.407-.059a1.023 1.023 0 0 1-.333-.185v.21h-.785v-3.71h.785v1.196c.107-.083.218-.147.334-.19a1.02 1.02 0 0 1 .358-.065c.246 0 .433.057.563.173.13.117.195.288.195.512v1.518zm2.993-.834h-1.45v.534c0 .149.024.252.074.31.051.058.137.087.257.087.127 0 .214-.025.265-.074.05-.049.076-.156.076-.324v-.128h.78v.145c0 .29-.094.509-.287.656-.19.147-.474.22-.85.22-.34 0-.608-.078-.803-.233-.194-.155-.293-.37-.293-.642V14.31c0-.245.108-.447.323-.602.214-.154.49-.23.83-.23.346 0 .612.071.799.214.186.143.279.35.279.617v.724zM9.227 9.736h.891V7.561l1.038-3.068h-.907L9.7 6.59H9.64l-.578-2.097h-.898L9.227 7.66v2.077zm4.526 4.363l-.165.026-.16.084v1.704a.684.684 0 0 0 .184.097l.188.029c.095 0 .165-.019.21-.059.044-.038.067-.1.067-.187V14.38c0-.094-.026-.163-.082-.21a.368.368 0 0 0-.242-.071z"/>
        <path fill="#FFF" d="M16.794 13.974c-.12 0-.207.026-.26.078-.052.05-.077.136-.077.255v.285h.67v-.285c0-.12-.028-.204-.08-.255-.052-.052-.138-.078-.253-.078z"/>
    </g>
</svg>
